<svg width="615" height="111" viewBox="0 0 615 111" fill="none" xmlns="http://www.w3.org/2000/svg">
<path fill-rule="evenodd" clip-rule="evenodd" d="M573.5 98.0069C596.42 98.0069 615 78.5297 615 54.5034C615 30.4772 596.42 11 573.5 11C550.58 11 532 30.4772 532 54.5034C532 78.5297 550.58 98.0069 573.5 98.0069ZM551.552 26.9107L597.557 72.9159C599.971 75.3299 599.971 79.258 597.557 81.6721C596.35 82.8792 594.764 83.4827 593.179 83.4827C591.593 83.4827 590.008 82.8792 588.801 81.6721L577.754 70.6255C576.208 69.0795 575.78 66.7049 576.689 64.7171C576.756 64.5726 576.785 64.3889 576.714 64.3176L574.852 62.4552C574.772 62.3763 574.682 62.3596 574.621 62.3596C574.559 62.3596 574.469 62.3761 574.39 62.4552C573.396 63.4486 572.075 63.9958 570.67 63.9958C569.265 63.9958 567.944 63.4486 566.95 62.4552L555.427 50.9315C549.669 45.1737 546.845 39.4588 547.031 33.9457C547.176 29.6583 549.188 27.1338 549.274 27.0285C549.548 26.6911 549.952 26.4856 550.387 26.463C550.82 26.4415 551.244 26.6031 551.552 26.9107ZM590.973 79.5002C592.189 80.7166 594.169 80.7166 595.385 79.5002C596.602 78.2838 596.602 76.3045 595.385 75.0879L550.813 30.5156C549.659 33.3445 548.681 39.8423 557.599 48.7598L569.122 60.2835C569.536 60.6968 570.086 60.9246 570.67 60.9246C571.255 60.9246 571.804 60.697 572.218 60.2835C572.86 59.6419 573.713 59.2882 574.621 59.2882C575.528 59.2882 576.382 59.6417 577.023 60.2835L578.886 62.146C579.869 63.1285 580.103 64.6391 579.483 65.9947C579.105 66.8221 579.283 67.81 579.926 68.4536L590.973 79.5002ZM598.946 30.0684C598.347 29.4687 597.374 29.4687 596.775 30.0684L586.973 39.8697C586.373 40.4695 586.373 41.442 586.973 42.0418C587.273 42.3416 587.666 42.4917 588.059 42.4917C588.452 42.4917 588.845 42.3419 589.145 42.0418L598.946 32.2403C599.546 31.6405 599.546 30.668 598.946 30.0684ZM592.602 24.6422C593.202 24.0424 594.174 24.0424 594.774 24.6422C595.374 25.2416 595.374 26.2141 594.774 26.8139L584.783 36.8044C583.818 37.7693 583.227 38.9809 583.202 40.0454L583.118 43.518C583.109 43.9124 582.948 44.2881 582.669 44.5669L579.45 47.7858C579.15 48.0857 578.757 48.2357 578.364 48.2357C577.971 48.2357 577.578 48.0857 577.279 47.7858C576.679 47.1864 576.679 46.2139 577.279 45.6141L580.063 42.8299L580.131 39.9719C580.176 38.1104 581.08 36.1644 582.611 34.6329L592.602 24.6422ZM568.52 67.0791C567.92 66.4793 566.948 66.4793 566.348 67.0791L554.061 79.3657C553.472 79.9551 552.689 80.2795 551.855 80.2795C551.022 80.2795 550.238 79.9549 549.649 79.3657C549.06 78.7763 548.735 77.9929 548.735 77.1596C548.735 76.3261 549.06 75.5427 549.649 74.9535L561.509 63.0933C562.109 62.4935 562.109 61.521 561.509 60.9216C560.91 60.3218 559.937 60.3218 559.338 60.9216L547.478 72.7818C546.308 73.9512 545.664 75.506 545.664 77.1598C545.664 78.8137 546.308 80.3684 547.478 81.5378C548.647 82.7071 550.202 83.3512 551.855 83.3512C553.509 83.3512 555.064 82.707 556.233 81.5378L568.52 69.2511C569.12 68.651 569.12 67.6785 568.52 67.0791ZM602.431 34.4712C603.03 33.8715 604.003 33.8715 604.603 34.4712C605.202 35.0708 605.202 36.0432 604.603 36.6429L594.612 46.6333C593.065 48.1805 591.066 49.0514 589.121 49.0216L586.16 48.9768L583.401 51.7362C583.101 52.0364 582.708 52.1862 582.315 52.1862C581.922 52.1862 581.529 52.036 581.229 51.7362C580.629 51.1368 580.629 50.1643 581.229 49.5645L584.448 46.3455C584.742 46.0518 585.146 45.8902 585.557 45.8959L589.167 45.9507C590.275 45.9626 591.491 45.4106 592.44 44.4616L602.431 34.4712Z" fill="#E88238"/>
<path d="M48.672 86.96C48.672 89.392 48.128 91.632 47.04 93.68C46.016 95.728 44.48 97.488 42.432 98.96C40.448 100.432 37.984 101.584 35.04 102.416C32.16 103.248 28.896 103.664 25.248 103.664C17.888 103.664 12.32 102.608 8.544 100.496C4.768 98.448 2.88 95.504 2.88 91.664C2.88 88.656 3.776 86.352 5.568 84.752C7.36 83.152 9.824 82.096 12.96 81.584V81.2C8.736 79.984 6.624 77.488 6.624 73.712C6.624 71.728 7.328 69.904 8.736 68.24C10.208 66.512 12.48 65.104 15.552 64.016C12.352 62.864 9.888 61.072 8.16 58.64C6.496 56.208 5.664 53.232 5.664 49.712C5.664 47.152 6.112 44.88 7.008 42.896C7.968 40.848 9.28 39.12 10.944 37.712C12.672 36.24 14.72 35.12 17.088 34.352C19.52 33.584 22.24 33.2 25.248 33.2C31.2 33.2 35.904 34.672 39.36 37.616L42.624 36.464L51.456 32.24H53.088V40.688H51.456L44.736 39.92H41.472C43.328 42.48 44.256 45.552 44.256 49.136C44.256 54.192 42.528 58.192 39.072 61.136C35.616 64.016 30.784 65.456 24.576 65.456C23.872 65.456 23.2 65.456 22.56 65.456C21.984 65.392 21.376 65.328 20.736 65.264C15.68 66.032 13.152 67.92 13.152 70.928C13.152 72.4 13.728 73.424 14.88 74C16.032 74.512 18.272 74.768 21.6 74.768H32.736C37.984 74.768 41.952 75.76 44.64 77.744C47.328 79.664 48.672 82.736 48.672 86.96ZM22.272 82.16C17.984 82.16 14.88 82.896 12.96 84.368C11.04 85.84 10.08 87.76 10.08 90.128C10.08 95.952 15.072 98.864 25.056 98.864C30.496 98.864 34.624 98.032 37.44 96.368C40.32 94.768 41.76 92.336 41.76 89.072C41.76 86.512 40.768 84.72 38.784 83.696C36.864 82.672 33.44 82.16 28.512 82.16H22.272ZM14.112 49.328C14.112 53.168 14.976 56.08 16.704 58.064C18.432 60.048 21.184 61.04 24.96 61.04C28.736 61.04 31.488 60.048 33.216 58.064C34.944 56.08 35.808 53.168 35.808 49.328C35.808 45.488 34.944 42.576 33.216 40.592C31.488 38.608 28.736 37.616 24.96 37.616C21.184 37.616 18.432 38.608 16.704 40.592C14.976 42.576 14.112 45.488 14.112 49.328ZM105.175 59.6C105.175 63.824 104.535 67.792 103.255 71.504C102.039 75.216 100.311 78.288 98.0708 80.72C94.2948 84.88 88.7268 86.96 81.3668 86.96C74.1988 86.96 68.7268 84.944 64.9508 80.912C62.7748 78.544 61.0788 75.632 59.8628 72.176C58.7108 68.656 58.1348 64.848 58.1348 60.752C58.1348 56.528 58.7428 52.528 59.9588 48.752C61.1748 44.976 62.9348 41.872 65.2388 39.44C67.2868 37.264 69.6548 35.696 72.3428 34.736C75.0308 33.712 78.1668 33.2 81.7508 33.2C85.2708 33.2 88.4388 33.712 91.2548 34.736C94.0708 35.696 96.4388 37.2 98.3588 39.248C100.599 41.616 102.295 44.592 103.447 48.176C104.599 51.696 105.175 55.504 105.175 59.6ZM68.4068 59.696C68.4068 67.376 69.5588 73.104 71.8628 76.88C72.9508 78.544 74.2308 79.824 75.7028 80.72C77.2388 81.552 79.2228 81.968 81.6548 81.968C86.0708 81.968 89.3668 80.464 91.5428 77.456C92.6948 75.792 93.5268 73.488 94.0388 70.544C94.6148 67.6 94.9028 64.208 94.9028 60.368C94.9028 52.752 93.7508 47.056 91.4468 43.28C90.3588 41.616 89.0468 40.368 87.5108 39.536C85.9748 38.64 83.9908 38.192 81.5588 38.192C77.0788 38.192 73.8468 39.664 71.8628 42.608C69.5588 46.192 68.4068 51.888 68.4068 59.696ZM114.01 60.56C114.01 56.336 114.554 52.368 115.642 48.656C116.73 44.944 118.362 41.872 120.538 39.44C122.394 37.392 124.57 35.856 127.066 34.832C129.626 33.744 132.602 33.2 135.994 33.2C138.874 33.2 141.466 33.744 143.77 34.832C146.074 35.92 148.154 37.872 150.01 40.688V16.88L142.618 15.056V11.12H159.322V80.24L166.714 82.064V86L151.834 86.96L151.066 79.088C149.082 82.096 146.842 84.176 144.346 85.328C141.85 86.416 139.066 86.96 135.994 86.96C132.73 86.96 129.786 86.48 127.162 85.52C124.538 84.56 122.362 83.024 120.634 80.912C118.586 78.416 116.954 75.44 115.738 71.984C114.586 68.464 114.01 64.656 114.01 60.56ZM150.01 60.464C150.01 52.592 148.89 46.864 146.65 43.28C145.626 41.616 144.378 40.368 142.906 39.536C141.434 38.64 139.482 38.192 137.05 38.192C132.698 38.192 129.466 39.696 127.354 42.704C126.202 44.368 125.37 46.672 124.858 49.616C124.346 52.56 124.09 55.952 124.09 59.792C124.09 67.472 125.21 73.168 127.45 76.88C128.538 78.544 129.818 79.824 131.29 80.72C132.762 81.552 134.714 81.968 137.146 81.968C139.386 81.968 141.306 81.616 142.906 80.912C144.506 80.144 145.754 79.024 146.65 77.552C147.738 75.76 148.57 73.456 149.146 70.64C149.722 67.76 150.01 64.368 150.01 60.464ZM172.773 74.768C172.773 72.272 173.317 70.064 174.405 68.144C175.557 66.224 177.349 64.528 179.781 63.056C182.213 61.52 185.349 60.208 189.189 59.12C193.029 58.032 197.637 57.072 203.013 56.24C202.693 52.464 202.309 49.52 201.861 47.408C201.477 45.296 200.933 43.6 200.229 42.32C199.333 40.656 198.085 39.44 196.485 38.672C194.885 37.84 193.157 37.424 191.301 37.424C189.509 37.424 187.877 37.744 186.405 38.384C184.997 39.024 184.037 39.888 183.525 40.976C184.421 41.68 185.061 42.544 185.445 43.568C185.893 44.528 186.117 45.456 186.117 46.352C186.117 47.952 185.573 49.232 184.485 50.192C183.461 51.088 182.181 51.536 180.645 51.536C179.109 51.536 177.829 51.024 176.805 50C175.845 48.976 175.365 47.536 175.365 45.68C175.365 43.696 175.909 41.936 176.997 40.4C178.085 38.8 179.493 37.488 181.221 36.464C183.013 35.376 184.997 34.576 187.173 34.064C189.413 33.488 191.621 33.2 193.797 33.2C199.237 33.2 203.525 34.768 206.661 37.904C210.629 41.872 212.613 48.912 212.613 59.024V72.944C212.613 76.144 212.805 78.352 213.189 79.568C213.637 80.72 214.565 81.296 215.973 81.296H220.293V84.176C215.685 86.032 212.101 86.96 209.541 86.96C208.581 86.96 207.781 86.8 207.141 86.48C206.501 86.16 205.989 85.616 205.605 84.848C205.221 84.016 204.933 82.928 204.741 81.584C204.613 80.24 204.549 78.544 204.549 76.496H204.165C202.181 79.76 199.557 82.32 196.293 84.176C193.029 86.032 189.509 86.96 185.733 86.96C181.701 86.96 178.533 85.904 176.229 83.792C173.925 81.616 172.773 78.608 172.773 74.768ZM189.765 81.392C191.557 81.392 193.413 80.944 195.333 80.048C197.317 79.088 198.981 77.776 200.325 76.112C202.309 73.68 203.301 70.096 203.301 65.36C203.301 64.272 203.269 63.216 203.205 62.192C203.141 61.104 203.045 60.08 202.917 59.12C199.013 59.888 195.749 60.688 193.125 61.52C190.565 62.352 188.485 63.312 186.885 64.4C185.349 65.424 184.261 66.64 183.621 68.048C182.981 69.392 182.661 70.96 182.661 72.752C182.661 75.504 183.269 77.648 184.485 79.184C185.765 80.656 187.525 81.392 189.765 81.392Z" fill="#387496"/>
<path d="M253.04 39.728C252.464 39.344 251.824 39.152 251.12 39.152C249.904 39.152 248.624 39.92 247.28 41.456C245.936 42.928 244.752 44.816 243.728 47.12C242.832 49.296 242.128 51.696 241.616 54.32C241.104 56.88 240.848 59.536 240.848 62.288V80.24L251.216 82.064V86H224.144V82.064L231.536 80.24V39.92L224.144 38.096V34.16H237.968L240.08 46.832H240.464C241.936 42.48 243.888 39.12 246.32 36.752C248.816 34.384 251.6 33.2 254.672 33.2C257.168 33.2 259.248 34 260.912 35.6C262.576 37.136 263.408 39.216 263.408 41.84C263.408 43.76 262.896 45.296 261.872 46.448C260.912 47.536 259.6 48.08 257.936 48.08C256.272 48.08 254.96 47.568 254 46.544C253.04 45.456 252.56 44.048 252.56 42.32C252.56 41.936 252.592 41.584 252.656 41.264C252.72 40.944 252.848 40.432 253.04 39.728ZM278.396 60.656C278.396 65.328 279.036 69.2 280.316 72.272C281.596 75.28 283.388 77.424 285.692 78.704C288.06 79.92 290.652 80.528 293.468 80.528C296.54 80.528 299.292 79.92 301.724 78.704C304.22 77.424 306.46 75.696 308.444 73.52L311.516 75.824C310.364 77.36 309.116 78.8 307.772 80.144C306.492 81.488 305.02 82.672 303.356 83.696C301.692 84.72 299.836 85.52 297.788 86.096C295.74 86.672 293.468 86.96 290.972 86.96C286.556 86.96 282.652 86.032 279.26 84.176C275.868 82.256 273.276 79.472 271.484 75.824C270.524 73.84 269.82 71.664 269.372 69.296C268.924 66.864 268.7 64.24 268.7 61.424C268.7 52.4 270.748 45.456 274.844 40.592C278.94 35.664 284.572 33.2 291.74 33.2C298.332 33.2 303.388 35.248 306.908 39.344C310.428 43.376 312.188 48.976 312.188 56.144C312.188 56.784 312.156 57.392 312.092 57.968C312.092 58.48 312.028 59.376 311.9 60.656H278.396ZM291.164 38.384C283.484 38.384 279.26 44.24 278.492 55.952H302.492V52.784C302.492 48.176 301.5 44.624 299.516 42.128C297.596 39.632 294.812 38.384 291.164 38.384ZM345.398 33.2C350.966 33.2 355.382 34.576 358.646 37.328C361.974 40.016 363.638 43.632 363.638 48.176C363.638 53.104 361.654 55.568 357.686 55.568C355.83 55.568 354.39 55.056 353.366 54.032C352.342 53.008 351.83 51.632 351.83 49.904C351.83 48.304 352.246 46.928 353.078 45.776C353.974 44.624 355.158 43.824 356.63 43.376C354.774 39.856 351.222 38.096 345.974 38.096C340.726 38.096 336.886 39.792 334.454 43.184C332.086 46.576 330.902 51.92 330.902 59.216C330.902 65.296 331.734 69.936 333.398 73.136C335.958 78.064 340.15 80.528 345.974 80.528C348.918 80.528 351.734 79.888 354.422 78.608C357.11 77.328 359.414 75.504 361.334 73.136L364.214 75.44C361.654 79.408 358.71 82.32 355.382 84.176C352.054 86.032 348.15 86.96 343.67 86.96C339.19 86.96 335.286 86.064 331.958 84.272C328.694 82.416 326.134 79.728 324.278 76.208C323.19 74.16 322.326 71.824 321.686 69.2C321.11 66.512 320.822 63.664 320.822 60.656C320.822 56.496 321.398 52.752 322.55 49.424C323.702 46.032 325.334 43.152 327.446 40.784C329.622 38.352 332.214 36.496 335.222 35.216C338.294 33.872 341.686 33.2 345.398 33.2ZM382.083 60.656C382.083 65.328 382.723 69.2 384.003 72.272C385.283 75.28 387.075 77.424 389.379 78.704C391.747 79.92 394.339 80.528 397.155 80.528C400.227 80.528 402.979 79.92 405.411 78.704C407.907 77.424 410.147 75.696 412.131 73.52L415.203 75.824C414.051 77.36 412.803 78.8 411.459 80.144C410.179 81.488 408.707 82.672 407.043 83.696C405.379 84.72 403.523 85.52 401.475 86.096C399.427 86.672 397.155 86.96 394.659 86.96C390.243 86.96 386.339 86.032 382.947 84.176C379.555 82.256 376.963 79.472 375.171 75.824C374.211 73.84 373.507 71.664 373.059 69.296C372.611 66.864 372.387 64.24 372.387 61.424C372.387 52.4 374.435 45.456 378.531 40.592C382.627 35.664 388.259 33.2 395.427 33.2C402.019 33.2 407.075 35.248 410.595 39.344C414.115 43.376 415.875 48.976 415.875 56.144C415.875 56.784 415.843 57.392 415.779 57.968C415.779 58.48 415.715 59.376 415.587 60.656H382.083ZM394.851 38.384C387.171 38.384 382.947 44.24 382.179 55.952H406.179V52.784C406.179 48.176 405.187 44.624 403.203 42.128C401.283 39.632 398.499 38.384 394.851 38.384ZM448.51 99.344V103.28H422.494V99.344L429.886 97.52V39.92L422.494 38.096V34.16H436.318L437.758 41.552C439.806 38.352 442.11 36.176 444.67 35.024C447.294 33.808 450.238 33.2 453.502 33.2C456.766 33.2 459.71 33.68 462.334 34.64C465.022 35.6 467.198 37.136 468.862 39.248C470.782 41.68 472.286 44.592 473.374 47.984C474.526 51.376 475.102 55.088 475.102 59.12C475.102 63.216 474.462 67.088 473.182 70.736C471.966 74.32 470.302 77.328 468.19 79.76C464.606 83.92 459.454 86 452.734 86C449.982 86 447.486 85.488 445.246 84.464C443.07 83.44 441.054 81.584 439.198 78.896V97.52L448.51 99.344ZM439.102 59.216C439.102 66.832 440.222 72.4 442.462 75.92C443.486 77.584 444.734 78.864 446.206 79.76C447.678 80.592 449.63 81.008 452.062 81.008C456.414 81.008 459.646 79.504 461.758 76.496C462.91 74.896 463.742 72.688 464.254 69.872C464.766 66.992 465.022 63.664 465.022 59.888C465.022 52.4 463.902 46.864 461.662 43.28C460.574 41.616 459.294 40.368 457.822 39.536C456.35 38.64 454.398 38.192 451.966 38.192C449.726 38.192 447.806 38.576 446.206 39.344C444.606 40.048 443.358 41.136 442.462 42.608C441.374 44.336 440.542 46.576 439.966 49.328C439.39 52.08 439.102 55.376 439.102 59.216ZM480.395 35.504L489.707 34.16L490.955 22.064L499.019 20.912V34.16H511.307V38.96H499.019V73.232C499.019 75.408 499.051 76.912 499.115 77.744C499.179 78.512 499.307 79.152 499.499 79.664C499.691 80.176 500.043 80.496 500.555 80.624C501.067 80.752 501.899 80.816 503.051 80.816H509.771V83.6C506.699 84.752 503.979 85.584 501.611 86.096C499.307 86.672 497.451 86.96 496.043 86.96C493.163 86.96 491.307 85.776 490.475 83.408C490.155 82.64 489.931 81.68 489.803 80.528C489.739 79.312 489.707 77.488 489.707 75.056V38.96H480.395V35.504Z" fill="#E88238"/>
</svg>
