<svg width="662" height="145" viewBox="0 0 662 145" fill="none" xmlns="http://www.w3.org/2000/svg">
<path fill-rule="evenodd" clip-rule="evenodd" d="M592.161 145C630.358 145 661.322 112.541 661.322 72.5C661.322 32.4594 630.358 0 592.161 0C553.965 0 523 32.4594 523 72.5C523 112.541 553.965 145 592.161 145ZM555.583 26.5158L632.252 103.185C636.276 107.208 636.276 113.754 632.252 117.777C630.241 119.789 627.599 120.795 624.956 120.795C622.314 120.795 619.672 119.789 617.66 117.777L599.251 99.368C596.674 96.7915 595.961 92.8341 597.476 89.5213C597.587 89.2806 597.636 88.9745 597.517 88.8557L594.414 85.7519C594.282 85.6204 594.132 85.5926 594.029 85.5926C593.926 85.5926 593.776 85.6201 593.644 85.7519C591.989 87.4075 589.787 88.3194 587.445 88.3194C585.103 88.3194 582.902 87.4075 581.246 85.7519L562.041 66.5472C552.446 56.9517 547.739 47.4276 548.05 38.2399C548.292 31.0947 551.645 26.8876 551.787 26.712C552.244 26.1498 552.918 25.8072 553.642 25.7696C554.364 25.7338 555.071 26.0032 555.583 26.5158ZM621.28 114.158C623.308 116.185 626.606 116.185 628.633 114.158C630.661 112.131 630.661 108.832 628.633 106.805L554.352 32.5235C552.429 37.2378 550.8 48.0667 565.661 62.928L584.866 82.1327C585.555 82.8215 586.471 83.201 587.445 83.201C588.419 83.201 589.335 82.8218 590.024 82.1327C591.094 81.0634 592.516 80.474 594.029 80.474C595.541 80.474 596.963 81.0631 598.033 82.1327L601.137 85.2365C602.775 86.8739 603.165 89.3914 602.132 91.6506C601.501 93.0294 601.798 94.6758 602.871 95.7485L621.28 114.158ZM634.568 31.7782C633.569 30.7787 631.948 30.7787 630.949 31.7782L614.615 48.1124C613.615 49.1119 613.615 50.7326 614.615 51.7322C615.115 52.2318 615.77 52.4821 616.425 52.4821C617.079 52.4821 617.735 52.2324 618.234 51.7322L634.568 35.3977C635.568 34.3982 635.568 32.7774 634.568 31.7782ZM623.996 22.7352C624.995 21.7356 626.615 21.7356 627.615 22.7352C628.614 23.7341 628.614 25.3548 627.614 26.3544L610.965 43.0039C609.357 44.612 608.372 46.6311 608.33 48.4052L608.191 54.1923C608.175 54.8496 607.906 55.4757 607.442 55.9405L602.077 61.3048C601.578 61.8047 600.923 62.0546 600.268 62.0546C599.613 62.0546 598.958 61.8047 598.458 61.3048C597.459 60.3058 597.459 58.6851 598.458 57.6856L603.098 53.0456L603.212 48.2827C603.287 45.1804 604.793 41.9374 607.346 39.385L623.996 22.7352ZM583.861 93.4577C582.862 92.4582 581.242 92.4582 580.242 93.4577L559.766 113.934C558.784 114.916 557.478 115.457 556.09 115.457C554.701 115.457 553.395 114.916 552.413 113.934C551.431 112.952 550.89 111.646 550.89 110.257C550.89 108.868 551.431 107.563 552.413 106.581L572.178 86.8153C573.178 85.8157 573.178 84.195 572.178 83.1961C571.179 82.1965 569.558 82.1965 568.559 83.1961L548.794 102.962C546.845 104.91 545.772 107.502 545.772 110.258C545.772 113.014 546.845 115.605 548.794 117.554C550.742 119.502 553.334 120.576 556.09 120.576C558.846 120.576 561.437 119.502 563.386 117.554L583.862 97.0776C584.861 96.0774 584.861 94.4567 583.861 93.4577ZM640.375 39.1156C641.374 38.1161 642.995 38.1161 643.995 39.1156C644.994 40.1149 644.994 41.7353 643.995 42.7348L627.345 59.3841C624.767 61.9627 621.435 63.414 618.194 63.3643L613.26 63.2896L608.661 67.8883C608.162 68.3885 607.507 68.6382 606.852 68.6382C606.197 68.6382 605.542 68.3879 605.042 67.8883C604.043 66.8894 604.043 65.2686 605.042 64.2691L610.407 58.9045C610.896 58.4151 611.57 58.1457 612.255 58.1553L618.271 58.2466C620.117 58.2663 622.145 57.3464 623.726 55.7649L640.375 39.1156Z" fill="#E88238"/>
<path d="M48.672 103.96C48.672 106.392 48.128 108.632 47.04 110.68C46.016 112.728 44.48 114.488 42.432 115.96C40.448 117.432 37.984 118.584 35.04 119.416C32.16 120.248 28.896 120.664 25.248 120.664C17.888 120.664 12.32 119.608 8.544 117.496C4.768 115.448 2.88 112.504 2.88 108.664C2.88 105.656 3.776 103.352 5.568 101.752C7.36 100.152 9.824 99.096 12.96 98.584V98.2C8.736 96.984 6.624 94.488 6.624 90.712C6.624 88.728 7.328 86.904 8.736 85.24C10.208 83.512 12.48 82.104 15.552 81.016C12.352 79.864 9.888 78.072 8.16 75.64C6.496 73.208 5.664 70.232 5.664 66.712C5.664 64.152 6.112 61.88 7.008 59.896C7.968 57.848 9.28 56.12 10.944 54.712C12.672 53.24 14.72 52.12 17.088 51.352C19.52 50.584 22.24 50.2 25.248 50.2C31.2 50.2 35.904 51.672 39.36 54.616L42.624 53.464L51.456 49.24H53.088V57.688H51.456L44.736 56.92H41.472C43.328 59.48 44.256 62.552 44.256 66.136C44.256 71.192 42.528 75.192 39.072 78.136C35.616 81.016 30.784 82.456 24.576 82.456C23.872 82.456 23.2 82.456 22.56 82.456C21.984 82.392 21.376 82.328 20.736 82.264C15.68 83.032 13.152 84.92 13.152 87.928C13.152 89.4 13.728 90.424 14.88 91C16.032 91.512 18.272 91.768 21.6 91.768H32.736C37.984 91.768 41.952 92.76 44.64 94.744C47.328 96.664 48.672 99.736 48.672 103.96ZM22.272 99.16C17.984 99.16 14.88 99.896 12.96 101.368C11.04 102.84 10.08 104.76 10.08 107.128C10.08 112.952 15.072 115.864 25.056 115.864C30.496 115.864 34.624 115.032 37.44 113.368C40.32 111.768 41.76 109.336 41.76 106.072C41.76 103.512 40.768 101.72 38.784 100.696C36.864 99.672 33.44 99.16 28.512 99.16H22.272ZM14.112 66.328C14.112 70.168 14.976 73.08 16.704 75.064C18.432 77.048 21.184 78.04 24.96 78.04C28.736 78.04 31.488 77.048 33.216 75.064C34.944 73.08 35.808 70.168 35.808 66.328C35.808 62.488 34.944 59.576 33.216 57.592C31.488 55.608 28.736 54.616 24.96 54.616C21.184 54.616 18.432 55.608 16.704 57.592C14.976 59.576 14.112 62.488 14.112 66.328ZM105.175 76.6C105.175 80.824 104.535 84.792 103.255 88.504C102.039 92.216 100.311 95.288 98.0708 97.72C94.2948 101.88 88.7268 103.96 81.3668 103.96C74.1988 103.96 68.7268 101.944 64.9508 97.912C62.7748 95.544 61.0788 92.632 59.8628 89.176C58.7108 85.656 58.1348 81.848 58.1348 77.752C58.1348 73.528 58.7428 69.528 59.9588 65.752C61.1748 61.976 62.9348 58.872 65.2388 56.44C67.2868 54.264 69.6548 52.696 72.3428 51.736C75.0308 50.712 78.1668 50.2 81.7508 50.2C85.2708 50.2 88.4388 50.712 91.2548 51.736C94.0708 52.696 96.4388 54.2 98.3588 56.248C100.599 58.616 102.295 61.592 103.447 65.176C104.599 68.696 105.175 72.504 105.175 76.6ZM68.4068 76.696C68.4068 84.376 69.5588 90.104 71.8628 93.88C72.9508 95.544 74.2308 96.824 75.7028 97.72C77.2388 98.552 79.2228 98.968 81.6548 98.968C86.0708 98.968 89.3668 97.464 91.5428 94.456C92.6948 92.792 93.5268 90.488 94.0388 87.544C94.6148 84.6 94.9028 81.208 94.9028 77.368C94.9028 69.752 93.7508 64.056 91.4468 60.28C90.3588 58.616 89.0468 57.368 87.5108 56.536C85.9748 55.64 83.9908 55.192 81.5588 55.192C77.0788 55.192 73.8468 56.664 71.8628 59.608C69.5588 63.192 68.4068 68.888 68.4068 76.696ZM114.01 77.56C114.01 73.336 114.554 69.368 115.642 65.656C116.73 61.944 118.362 58.872 120.538 56.44C122.394 54.392 124.57 52.856 127.066 51.832C129.626 50.744 132.602 50.2 135.994 50.2C138.874 50.2 141.466 50.744 143.77 51.832C146.074 52.92 148.154 54.872 150.01 57.688V33.88L142.618 32.056V28.12H159.322V97.24L166.714 99.064V103L151.834 103.96L151.066 96.088C149.082 99.096 146.842 101.176 144.346 102.328C141.85 103.416 139.066 103.96 135.994 103.96C132.73 103.96 129.786 103.48 127.162 102.52C124.538 101.56 122.362 100.024 120.634 97.912C118.586 95.416 116.954 92.44 115.738 88.984C114.586 85.464 114.01 81.656 114.01 77.56ZM150.01 77.464C150.01 69.592 148.89 63.864 146.65 60.28C145.626 58.616 144.378 57.368 142.906 56.536C141.434 55.64 139.482 55.192 137.05 55.192C132.698 55.192 129.466 56.696 127.354 59.704C126.202 61.368 125.37 63.672 124.858 66.616C124.346 69.56 124.09 72.952 124.09 76.792C124.09 84.472 125.21 90.168 127.45 93.88C128.538 95.544 129.818 96.824 131.29 97.72C132.762 98.552 134.714 98.968 137.146 98.968C139.386 98.968 141.306 98.616 142.906 97.912C144.506 97.144 145.754 96.024 146.65 94.552C147.738 92.76 148.57 90.456 149.146 87.64C149.722 84.76 150.01 81.368 150.01 77.464ZM172.773 91.768C172.773 89.272 173.317 87.064 174.405 85.144C175.557 83.224 177.349 81.528 179.781 80.056C182.213 78.52 185.349 77.208 189.189 76.12C193.029 75.032 197.637 74.072 203.013 73.24C202.693 69.464 202.309 66.52 201.861 64.408C201.477 62.296 200.933 60.6 200.229 59.32C199.333 57.656 198.085 56.44 196.485 55.672C194.885 54.84 193.157 54.424 191.301 54.424C189.509 54.424 187.877 54.744 186.405 55.384C184.997 56.024 184.037 56.888 183.525 57.976C184.421 58.68 185.061 59.544 185.445 60.568C185.893 61.528 186.117 62.456 186.117 63.352C186.117 64.952 185.573 66.232 184.485 67.192C183.461 68.088 182.181 68.536 180.645 68.536C179.109 68.536 177.829 68.024 176.805 67C175.845 65.976 175.365 64.536 175.365 62.68C175.365 60.696 175.909 58.936 176.997 57.4C178.085 55.8 179.493 54.488 181.221 53.464C183.013 52.376 184.997 51.576 187.173 51.064C189.413 50.488 191.621 50.2 193.797 50.2C199.237 50.2 203.525 51.768 206.661 54.904C210.629 58.872 212.613 65.912 212.613 76.024V89.944C212.613 93.144 212.805 95.352 213.189 96.568C213.637 97.72 214.565 98.296 215.973 98.296H220.293V101.176C215.685 103.032 212.101 103.96 209.541 103.96C208.581 103.96 207.781 103.8 207.141 103.48C206.501 103.16 205.989 102.616 205.605 101.848C205.221 101.016 204.933 99.928 204.741 98.584C204.613 97.24 204.549 95.544 204.549 93.496H204.165C202.181 96.76 199.557 99.32 196.293 101.176C193.029 103.032 189.509 103.96 185.733 103.96C181.701 103.96 178.533 102.904 176.229 100.792C173.925 98.616 172.773 95.608 172.773 91.768ZM189.765 98.392C191.557 98.392 193.413 97.944 195.333 97.048C197.317 96.088 198.981 94.776 200.325 93.112C202.309 90.68 203.301 87.096 203.301 82.36C203.301 81.272 203.269 80.216 203.205 79.192C203.141 78.104 203.045 77.08 202.917 76.12C199.013 76.888 195.749 77.688 193.125 78.52C190.565 79.352 188.485 80.312 186.885 81.4C185.349 82.424 184.261 83.64 183.621 85.048C182.981 86.392 182.661 87.96 182.661 89.752C182.661 92.504 183.269 94.648 184.485 96.184C185.765 97.656 187.525 98.392 189.765 98.392Z" fill="#387496"/>
<path d="M253.04 56.728C252.464 56.344 251.824 56.152 251.12 56.152C249.904 56.152 248.624 56.92 247.28 58.456C245.936 59.928 244.752 61.816 243.728 64.12C242.832 66.296 242.128 68.696 241.616 71.32C241.104 73.88 240.848 76.536 240.848 79.288V97.24L251.216 99.064V103H224.144V99.064L231.536 97.24V56.92L224.144 55.096V51.16H237.968L240.08 63.832H240.464C241.936 59.48 243.888 56.12 246.32 53.752C248.816 51.384 251.6 50.2 254.672 50.2C257.168 50.2 259.248 51 260.912 52.6C262.576 54.136 263.408 56.216 263.408 58.84C263.408 60.76 262.896 62.296 261.872 63.448C260.912 64.536 259.6 65.08 257.936 65.08C256.272 65.08 254.96 64.568 254 63.544C253.04 62.456 252.56 61.048 252.56 59.32C252.56 58.936 252.592 58.584 252.656 58.264C252.72 57.944 252.848 57.432 253.04 56.728ZM278.396 77.656C278.396 82.328 279.036 86.2 280.316 89.272C281.596 92.28 283.388 94.424 285.692 95.704C288.06 96.92 290.652 97.528 293.468 97.528C296.54 97.528 299.292 96.92 301.724 95.704C304.22 94.424 306.46 92.696 308.444 90.52L311.516 92.824C310.364 94.36 309.116 95.8 307.772 97.144C306.492 98.488 305.02 99.672 303.356 100.696C301.692 101.72 299.836 102.52 297.788 103.096C295.74 103.672 293.468 103.96 290.972 103.96C286.556 103.96 282.652 103.032 279.26 101.176C275.868 99.256 273.276 96.472 271.484 92.824C270.524 90.84 269.82 88.664 269.372 86.296C268.924 83.864 268.7 81.24 268.7 78.424C268.7 69.4 270.748 62.456 274.844 57.592C278.94 52.664 284.572 50.2 291.74 50.2C298.332 50.2 303.388 52.248 306.908 56.344C310.428 60.376 312.188 65.976 312.188 73.144C312.188 73.784 312.156 74.392 312.092 74.968C312.092 75.48 312.028 76.376 311.9 77.656H278.396ZM291.164 55.384C283.484 55.384 279.26 61.24 278.492 72.952H302.492V69.784C302.492 65.176 301.5 61.624 299.516 59.128C297.596 56.632 294.812 55.384 291.164 55.384ZM345.398 50.2C350.966 50.2 355.382 51.576 358.646 54.328C361.974 57.016 363.638 60.632 363.638 65.176C363.638 70.104 361.654 72.568 357.686 72.568C355.83 72.568 354.39 72.056 353.366 71.032C352.342 70.008 351.83 68.632 351.83 66.904C351.83 65.304 352.246 63.928 353.078 62.776C353.974 61.624 355.158 60.824 356.63 60.376C354.774 56.856 351.222 55.096 345.974 55.096C340.726 55.096 336.886 56.792 334.454 60.184C332.086 63.576 330.902 68.92 330.902 76.216C330.902 82.296 331.734 86.936 333.398 90.136C335.958 95.064 340.15 97.528 345.974 97.528C348.918 97.528 351.734 96.888 354.422 95.608C357.11 94.328 359.414 92.504 361.334 90.136L364.214 92.44C361.654 96.408 358.71 99.32 355.382 101.176C352.054 103.032 348.15 103.96 343.67 103.96C339.19 103.96 335.286 103.064 331.958 101.272C328.694 99.416 326.134 96.728 324.278 93.208C323.19 91.16 322.326 88.824 321.686 86.2C321.11 83.512 320.822 80.664 320.822 77.656C320.822 73.496 321.398 69.752 322.55 66.424C323.702 63.032 325.334 60.152 327.446 57.784C329.622 55.352 332.214 53.496 335.222 52.216C338.294 50.872 341.686 50.2 345.398 50.2ZM382.083 77.656C382.083 82.328 382.723 86.2 384.003 89.272C385.283 92.28 387.075 94.424 389.379 95.704C391.747 96.92 394.339 97.528 397.155 97.528C400.227 97.528 402.979 96.92 405.411 95.704C407.907 94.424 410.147 92.696 412.131 90.52L415.203 92.824C414.051 94.36 412.803 95.8 411.459 97.144C410.179 98.488 408.707 99.672 407.043 100.696C405.379 101.72 403.523 102.52 401.475 103.096C399.427 103.672 397.155 103.96 394.659 103.96C390.243 103.96 386.339 103.032 382.947 101.176C379.555 99.256 376.963 96.472 375.171 92.824C374.211 90.84 373.507 88.664 373.059 86.296C372.611 83.864 372.387 81.24 372.387 78.424C372.387 69.4 374.435 62.456 378.531 57.592C382.627 52.664 388.259 50.2 395.427 50.2C402.019 50.2 407.075 52.248 410.595 56.344C414.115 60.376 415.875 65.976 415.875 73.144C415.875 73.784 415.843 74.392 415.779 74.968C415.779 75.48 415.715 76.376 415.587 77.656H382.083ZM394.851 55.384C387.171 55.384 382.947 61.24 382.179 72.952H406.179V69.784C406.179 65.176 405.187 61.624 403.203 59.128C401.283 56.632 398.499 55.384 394.851 55.384ZM448.51 116.344V120.28H422.494V116.344L429.886 114.52V56.92L422.494 55.096V51.16H436.318L437.758 58.552C439.806 55.352 442.11 53.176 444.67 52.024C447.294 50.808 450.238 50.2 453.502 50.2C456.766 50.2 459.71 50.68 462.334 51.64C465.022 52.6 467.198 54.136 468.862 56.248C470.782 58.68 472.286 61.592 473.374 64.984C474.526 68.376 475.102 72.088 475.102 76.12C475.102 80.216 474.462 84.088 473.182 87.736C471.966 91.32 470.302 94.328 468.19 96.76C464.606 100.92 459.454 103 452.734 103C449.982 103 447.486 102.488 445.246 101.464C443.07 100.44 441.054 98.584 439.198 95.896V114.52L448.51 116.344ZM439.102 76.216C439.102 83.832 440.222 89.4 442.462 92.92C443.486 94.584 444.734 95.864 446.206 96.76C447.678 97.592 449.63 98.008 452.062 98.008C456.414 98.008 459.646 96.504 461.758 93.496C462.91 91.896 463.742 89.688 464.254 86.872C464.766 83.992 465.022 80.664 465.022 76.888C465.022 69.4 463.902 63.864 461.662 60.28C460.574 58.616 459.294 57.368 457.822 56.536C456.35 55.64 454.398 55.192 451.966 55.192C449.726 55.192 447.806 55.576 446.206 56.344C444.606 57.048 443.358 58.136 442.462 59.608C441.374 61.336 440.542 63.576 439.966 66.328C439.39 69.08 439.102 72.376 439.102 76.216ZM480.395 52.504L489.707 51.16L490.955 39.064L499.019 37.912V51.16H511.307V55.96H499.019V90.232C499.019 92.408 499.051 93.912 499.115 94.744C499.179 95.512 499.307 96.152 499.499 96.664C499.691 97.176 500.043 97.496 500.555 97.624C501.067 97.752 501.899 97.816 503.051 97.816H509.771V100.6C506.699 101.752 503.979 102.584 501.611 103.096C499.307 103.672 497.451 103.96 496.043 103.96C493.163 103.96 491.307 102.776 490.475 100.408C490.155 99.64 489.931 98.68 489.803 97.528C489.739 96.312 489.707 94.488 489.707 92.056V55.96H480.395V52.504Z" fill="#E88238"/>
</svg>
